<mxfile host="65bd71144e">
    <diagram id="HEHTztigiQsHfBHoAc9u" name="Page-1">
        <mxGraphModel dx="1062" dy="577" grid="1" gridSize="10" guides="1" tooltips="1" connect="1" arrows="1" fold="1" page="1" pageScale="1" pageWidth="850" pageHeight="1100" math="0" shadow="0">
            <root>
                <mxCell id="0"/>
                <mxCell id="1" parent="0"/>
                <mxCell id="2" value="LaserControlWidget" style="swimlane;fontStyle=1;align=center;verticalAlign=middle;childLayout=stackLayout;horizontal=1;startSize=29;horizontalStack=0;resizeParent=1;resizeParentMax=0;resizeLast=0;collapsible=0;marginBottom=0;html=1;whiteSpace=wrap;flipH=0;" parent="1" vertex="1">
                    <mxGeometry x="20" y="390" width="140" height="54" as="geometry"/>
                </mxCell>
                <mxCell id="5" value="FlirCameraWidget" style="swimlane;fontStyle=1;align=center;verticalAlign=middle;childLayout=stackLayout;horizontal=1;startSize=29;horizontalStack=0;resizeParent=1;resizeParentMax=0;resizeLast=0;collapsible=0;marginBottom=0;html=1;whiteSpace=wrap;flipH=0;" parent="1" vertex="1">
                    <mxGeometry x="180" y="390" width="140" height="54" as="geometry"/>
                </mxCell>
                <mxCell id="6" value="OphirPowerMeterWidget" style="swimlane;fontStyle=1;align=center;verticalAlign=middle;childLayout=stackLayout;horizontal=1;startSize=29;horizontalStack=0;resizeParent=1;resizeParentMax=0;resizeLast=0;collapsible=0;marginBottom=0;html=1;whiteSpace=wrap;flipH=0;" parent="1" vertex="1">
                    <mxGeometry x="340" y="390" width="150" height="54" as="geometry"/>
                </mxCell>
                <mxCell id="7" value="OceanSpectrometerWidget" style="swimlane;fontStyle=1;align=center;verticalAlign=middle;childLayout=stackLayout;horizontal=1;startSize=29;horizontalStack=0;resizeParent=1;resizeParentMax=0;resizeLast=0;collapsible=0;marginBottom=0;html=1;whiteSpace=wrap;flipH=0;" parent="1" vertex="1">
                    <mxGeometry x="510" y="390" width="160" height="54" as="geometry"/>
                </mxCell>
                <mxCell id="8" value="ElliptecRotatorWidget" style="swimlane;fontStyle=1;align=center;verticalAlign=middle;childLayout=stackLayout;horizontal=1;startSize=29;horizontalStack=0;resizeParent=1;resizeParentMax=0;resizeLast=0;collapsible=0;marginBottom=0;html=1;whiteSpace=wrap;flipH=0;" parent="1" vertex="1">
                    <mxGeometry x="690" y="390" width="140" height="54" as="geometry"/>
                </mxCell>
                <mxCell id="12" value="MainWindow" style="swimlane;fontStyle=1;align=center;verticalAlign=middle;childLayout=stackLayout;horizontal=1;startSize=29;horizontalStack=0;resizeParent=1;resizeParentMax=0;resizeLast=0;collapsible=0;marginBottom=0;html=1;whiteSpace=wrap;flipH=0;" parent="1" vertex="1">
                    <mxGeometry x="345" y="230" width="140" height="54" as="geometry"/>
                </mxCell>
                <mxCell id="19" value="" style="endArrow=none;startArrow=diamondThin;endFill=0;startFill=1;html=1;verticalAlign=bottom;labelBackgroundColor=none;strokeWidth=1;startSize=8;endSize=8;exitX=0.5;exitY=0;exitDx=0;exitDy=0;entryX=0;entryY=0.75;entryDx=0;entryDy=0;" parent="1" source="5" target="12" edge="1">
                    <mxGeometry width="160" relative="1" as="geometry">
                        <mxPoint x="100" y="400" as="sourcePoint"/>
                        <mxPoint x="355" y="268" as="targetPoint"/>
                        <Array as="points">
                            <mxPoint x="250" y="271"/>
                        </Array>
                    </mxGeometry>
                </mxCell>
                <mxCell id="20" value="" style="endArrow=none;startArrow=diamondThin;endFill=0;startFill=1;html=1;verticalAlign=bottom;labelBackgroundColor=none;strokeWidth=1;startSize=8;endSize=8;exitX=0.5;exitY=0;exitDx=0;exitDy=0;entryX=0.5;entryY=1;entryDx=0;entryDy=0;" parent="1" source="6" target="12" edge="1">
                    <mxGeometry width="160" relative="1" as="geometry">
                        <mxPoint x="260" y="400" as="sourcePoint"/>
                        <mxPoint x="470" y="310" as="targetPoint"/>
                        <Array as="points"/>
                    </mxGeometry>
                </mxCell>
                <mxCell id="21" value="" style="endArrow=none;startArrow=diamondThin;endFill=0;startFill=1;html=1;verticalAlign=bottom;labelBackgroundColor=none;strokeWidth=1;startSize=8;endSize=8;exitX=0.5;exitY=0;exitDx=0;exitDy=0;entryX=1;entryY=0.75;entryDx=0;entryDy=0;" parent="1" source="7" target="12" edge="1">
                    <mxGeometry width="160" relative="1" as="geometry">
                        <mxPoint x="575" y="390" as="sourcePoint"/>
                        <mxPoint x="670" y="271" as="targetPoint"/>
                        <Array as="points">
                            <mxPoint x="590" y="271"/>
                        </Array>
                    </mxGeometry>
                </mxCell>
                <mxCell id="22" value="" style="endArrow=none;startArrow=diamondThin;endFill=0;startFill=1;html=1;verticalAlign=bottom;labelBackgroundColor=none;strokeWidth=1;startSize=8;endSize=8;exitX=0.5;exitY=0;exitDx=0;exitDy=0;entryX=1;entryY=0.5;entryDx=0;entryDy=0;" parent="1" source="8" target="12" edge="1">
                    <mxGeometry width="160" relative="1" as="geometry">
                        <mxPoint x="650" y="379" as="sourcePoint"/>
                        <mxPoint x="745" y="260" as="targetPoint"/>
                        <Array as="points">
                            <mxPoint x="760" y="257"/>
                        </Array>
                    </mxGeometry>
                </mxCell>
                <mxCell id="23" value="" style="endArrow=none;startArrow=diamondThin;endFill=0;startFill=1;html=1;verticalAlign=bottom;labelBackgroundColor=none;strokeWidth=1;startSize=8;endSize=8;exitX=0.5;exitY=0;exitDx=0;exitDy=0;entryX=0;entryY=0.5;entryDx=0;entryDy=0;" parent="1" source="2" target="12" edge="1">
                    <mxGeometry width="160" relative="1" as="geometry">
                        <mxPoint x="65" y="369" as="sourcePoint"/>
                        <mxPoint x="160" y="250" as="targetPoint"/>
                        <Array as="points">
                            <mxPoint x="90" y="257"/>
                        </Array>
                    </mxGeometry>
                </mxCell>
                <mxCell id="24" value="IPGYLRLaserController" style="swimlane;fontStyle=1;align=center;verticalAlign=middle;childLayout=stackLayout;horizontal=1;startSize=29;horizontalStack=0;resizeParent=1;resizeParentMax=0;resizeLast=0;collapsible=0;marginBottom=0;html=1;whiteSpace=wrap;flipH=0;" parent="1" vertex="1">
                    <mxGeometry x="20" y="496" width="140" height="54" as="geometry"/>
                </mxCell>
                <mxCell id="25" value="" style="endArrow=none;startArrow=diamondThin;endFill=0;startFill=1;html=1;verticalAlign=bottom;labelBackgroundColor=none;strokeWidth=1;startSize=8;endSize=8;entryX=0.5;entryY=1;entryDx=0;entryDy=0;exitX=0.5;exitY=0;exitDx=0;exitDy=0;" parent="1" source="24" target="2" edge="1">
                    <mxGeometry width="160" relative="1" as="geometry">
                        <mxPoint x="360" y="570" as="sourcePoint"/>
                        <mxPoint x="520" y="570" as="targetPoint"/>
                    </mxGeometry>
                </mxCell>
                <mxCell id="26" value="FlirCameraController" style="swimlane;fontStyle=1;align=center;verticalAlign=middle;childLayout=stackLayout;horizontal=1;startSize=29;horizontalStack=0;resizeParent=1;resizeParentMax=0;resizeLast=0;collapsible=0;marginBottom=0;html=1;whiteSpace=wrap;flipH=0;" parent="1" vertex="1">
                    <mxGeometry x="180" y="496" width="140" height="54" as="geometry"/>
                </mxCell>
                <mxCell id="27" value="OphirJunoController" style="swimlane;fontStyle=1;align=center;verticalAlign=middle;childLayout=stackLayout;horizontal=1;startSize=29;horizontalStack=0;resizeParent=1;resizeParentMax=0;resizeLast=0;collapsible=0;marginBottom=0;html=1;whiteSpace=wrap;flipH=0;" parent="1" vertex="1">
                    <mxGeometry x="345" y="496" width="140" height="54" as="geometry"/>
                </mxCell>
                <mxCell id="28" value="" style="endArrow=none;startArrow=diamondThin;endFill=0;startFill=1;html=1;verticalAlign=bottom;labelBackgroundColor=none;strokeWidth=1;startSize=8;endSize=8;entryX=0.5;entryY=1;entryDx=0;entryDy=0;exitX=0.5;exitY=0;exitDx=0;exitDy=0;" parent="1" source="26" target="5" edge="1">
                    <mxGeometry width="160" relative="1" as="geometry">
                        <mxPoint x="100" y="506" as="sourcePoint"/>
                        <mxPoint x="100" y="454" as="targetPoint"/>
                    </mxGeometry>
                </mxCell>
                <mxCell id="29" value="" style="endArrow=none;startArrow=diamondThin;endFill=0;startFill=1;html=1;verticalAlign=bottom;labelBackgroundColor=none;strokeWidth=1;startSize=8;endSize=8;entryX=0.5;entryY=1;entryDx=0;entryDy=0;exitX=0.5;exitY=0;exitDx=0;exitDy=0;" parent="1" source="27" target="6" edge="1">
                    <mxGeometry width="160" relative="1" as="geometry">
                        <mxPoint x="110" y="516" as="sourcePoint"/>
                        <mxPoint x="110" y="464" as="targetPoint"/>
                    </mxGeometry>
                </mxCell>
                <mxCell id="30" value="LitmosControlWidget" style="swimlane;fontStyle=1;align=center;verticalAlign=middle;childLayout=stackLayout;horizontal=1;startSize=29;horizontalStack=0;resizeParent=1;resizeParentMax=0;resizeLast=0;collapsible=0;marginBottom=0;html=1;whiteSpace=wrap;flipH=0;" parent="1" vertex="1">
                    <mxGeometry x="345" y="130" width="140" height="54" as="geometry"/>
                </mxCell>
                <mxCell id="31" value="" style="endArrow=none;startArrow=diamondThin;endFill=0;startFill=1;html=1;verticalAlign=bottom;labelBackgroundColor=none;strokeWidth=1;startSize=8;endSize=8;exitX=0.5;exitY=1;exitDx=0;exitDy=0;entryX=0.5;entryY=0;entryDx=0;entryDy=0;" parent="1" source="30" target="12" edge="1">
                    <mxGeometry width="160" relative="1" as="geometry">
                        <mxPoint x="550" y="196" as="sourcePoint"/>
                        <mxPoint x="550" y="90" as="targetPoint"/>
                        <Array as="points"/>
                    </mxGeometry>
                </mxCell>
                <mxCell id="32" value="seabreeze.Spectrometer" style="swimlane;fontStyle=1;align=center;verticalAlign=middle;childLayout=stackLayout;horizontal=1;startSize=29;horizontalStack=0;resizeParent=1;resizeParentMax=0;resizeLast=0;collapsible=0;marginBottom=0;html=1;whiteSpace=wrap;flipH=0;" parent="1" vertex="1">
                    <mxGeometry x="510" y="496" width="160" height="54" as="geometry"/>
                </mxCell>
                <mxCell id="33" value="" style="endArrow=none;startArrow=diamondThin;endFill=0;startFill=1;html=1;verticalAlign=bottom;labelBackgroundColor=none;strokeWidth=1;startSize=8;endSize=8;entryX=0.5;entryY=1;entryDx=0;entryDy=0;exitX=0.5;exitY=0;exitDx=0;exitDy=0;" parent="1" source="32" target="7" edge="1">
                    <mxGeometry width="160" relative="1" as="geometry">
                        <mxPoint x="425" y="506" as="sourcePoint"/>
                        <mxPoint x="425" y="454" as="targetPoint"/>
                    </mxGeometry>
                </mxCell>
                <mxCell id="34" value="elliptec.Rotator" style="swimlane;fontStyle=1;align=center;verticalAlign=middle;childLayout=stackLayout;horizontal=1;startSize=29;horizontalStack=0;resizeParent=1;resizeParentMax=0;resizeLast=0;collapsible=0;marginBottom=0;html=1;whiteSpace=wrap;flipH=0;" parent="1" vertex="1">
                    <mxGeometry x="720" y="570" width="100" height="54" as="geometry"/>
                </mxCell>
                <mxCell id="35" value="elliptec.Controller" style="swimlane;fontStyle=1;align=center;verticalAlign=middle;childLayout=stackLayout;horizontal=1;startSize=29;horizontalStack=0;resizeParent=1;resizeParentMax=0;resizeLast=0;collapsible=0;marginBottom=0;html=1;whiteSpace=wrap;flipH=0;" vertex="1" parent="1">
                    <mxGeometry x="600" y="570" width="110" height="54" as="geometry"/>
                </mxCell>
                <mxCell id="36" value="" style="endArrow=none;startArrow=none;endFill=0;startFill=0;endSize=8;html=1;verticalAlign=bottom;labelBackgroundColor=none;strokeWidth=3;entryX=0;entryY=0.5;entryDx=0;entryDy=0;exitX=1;exitY=0.5;exitDx=0;exitDy=0;" edge="1" parent="1" source="35" target="34">
                    <mxGeometry width="160" relative="1" as="geometry">
                        <mxPoint x="710" y="660" as="sourcePoint"/>
                        <mxPoint x="500" y="400" as="targetPoint"/>
                    </mxGeometry>
                </mxCell>
                <mxCell id="37" value="" style="endArrow=none;startArrow=diamondThin;endFill=0;startFill=1;html=1;verticalAlign=bottom;labelBackgroundColor=none;strokeWidth=1;startSize=8;endSize=8;exitX=0.5;exitY=0;exitDx=0;exitDy=0;entryX=0.5;entryY=1;entryDx=0;entryDy=0;" edge="1" parent="1" source="34" target="8">
                    <mxGeometry width="160" relative="1" as="geometry">
                        <mxPoint x="770" y="400" as="sourcePoint"/>
                        <mxPoint x="495" y="267" as="targetPoint"/>
                        <Array as="points">
                            <mxPoint x="770" y="480"/>
                            <mxPoint x="760" y="480"/>
                        </Array>
                    </mxGeometry>
                </mxCell>
                <mxCell id="38" value="" style="endArrow=none;startArrow=diamondThin;endFill=0;startFill=1;html=1;verticalAlign=bottom;labelBackgroundColor=none;strokeWidth=1;startSize=8;endSize=8;exitX=0.75;exitY=0;exitDx=0;exitDy=0;entryX=0.25;entryY=1;entryDx=0;entryDy=0;" edge="1" parent="1" source="35" target="8">
                    <mxGeometry width="160" relative="1" as="geometry">
                        <mxPoint x="800" y="580" as="sourcePoint"/>
                        <mxPoint x="730" y="440" as="targetPoint"/>
                        <Array as="points">
                            <mxPoint x="683" y="480"/>
                            <mxPoint x="725" y="480"/>
                        </Array>
                    </mxGeometry>
                </mxCell>
                <mxCell id="39" value="DataLogger" style="swimlane;fontStyle=1;align=center;verticalAlign=middle;childLayout=stackLayout;horizontal=1;startSize=29;horizontalStack=0;resizeParent=1;resizeParentMax=0;resizeLast=0;collapsible=0;marginBottom=0;html=1;whiteSpace=wrap;flipH=0;" vertex="1" parent="1">
                    <mxGeometry x="372.5" y="40" width="85" height="54" as="geometry"/>
                </mxCell>
                <mxCell id="40" value="" style="endArrow=none;startArrow=diamondThin;endFill=0;startFill=1;html=1;verticalAlign=bottom;labelBackgroundColor=none;strokeWidth=1;startSize=8;endSize=8;exitX=0.5;exitY=1;exitDx=0;exitDy=0;entryX=0.5;entryY=0;entryDx=0;entryDy=0;" edge="1" parent="1" source="39" target="30">
                    <mxGeometry width="160" relative="1" as="geometry">
                        <mxPoint x="425" y="164" as="sourcePoint"/>
                        <mxPoint x="425" y="240" as="targetPoint"/>
                        <Array as="points"/>
                    </mxGeometry>
                </mxCell>
                <mxCell id="44" style="edgeStyle=none;html=1;entryX=0;entryY=0;entryDx=0;entryDy=0;" edge="1" parent="1" source="41" target="12">
                    <mxGeometry relative="1" as="geometry"/>
                </mxCell>
                <mxCell id="45" value="Access" style="edgeLabel;html=1;align=center;verticalAlign=middle;resizable=0;points=[];" vertex="1" connectable="0" parent="44">
                    <mxGeometry x="0.2795" y="3" relative="1" as="geometry">
                        <mxPoint as="offset"/>
                    </mxGeometry>
                </mxCell>
                <mxCell id="41" value="User" style="shape=umlActor;verticalLabelPosition=bottom;verticalAlign=top;html=1;" vertex="1" parent="1">
                    <mxGeometry x="170" y="150" width="30" height="60" as="geometry"/>
                </mxCell>
                <mxCell id="46" value="LitmosDataCollector" style="swimlane;fontStyle=1;align=center;verticalAlign=middle;childLayout=stackLayout;horizontal=1;startSize=29;horizontalStack=0;resizeParent=1;resizeParentMax=0;resizeLast=0;collapsible=0;marginBottom=0;html=1;whiteSpace=wrap;flipH=0;" vertex="1" parent="1">
                    <mxGeometry x="510" y="127.5" width="260" height="59" as="geometry"/>
                </mxCell>
                <mxCell id="58" value="+collect_data(): LitmosMeasurementData" style="text;html=1;align=center;verticalAlign=middle;resizable=0;points=[];autosize=1;strokeColor=none;fillColor=none;" vertex="1" parent="46">
                    <mxGeometry y="29" width="260" height="30" as="geometry"/>
                </mxCell>
                <mxCell id="47" value="" style="endArrow=open;startArrow=none;endFill=0;startFill=0;endSize=8;html=1;verticalAlign=bottom;labelBackgroundColor=none;strokeWidth=1;exitX=0.5;exitY=1;exitDx=0;exitDy=0;entryX=0.29;entryY=-0.02;entryDx=0;entryDy=0;entryPerimeter=0;" edge="1" parent="1" source="46" target="8">
                    <mxGeometry width="160" relative="1" as="geometry">
                        <mxPoint x="420" y="220" as="sourcePoint"/>
                        <mxPoint x="580" y="220" as="targetPoint"/>
                        <Array as="points">
                            <mxPoint x="640" y="220"/>
                            <mxPoint x="730" y="220"/>
                        </Array>
                    </mxGeometry>
                </mxCell>
                <mxCell id="48" value="" style="endArrow=open;startArrow=none;endFill=0;startFill=0;endSize=8;html=1;verticalAlign=bottom;labelBackgroundColor=none;strokeWidth=1;exitX=0.5;exitY=1;exitDx=0;exitDy=0;entryX=0.75;entryY=0;entryDx=0;entryDy=0;" edge="1" parent="1" source="46" target="7">
                    <mxGeometry width="160" relative="1" as="geometry">
                        <mxPoint x="590" y="194" as="sourcePoint"/>
                        <mxPoint x="741" y="399" as="targetPoint"/>
                        <Array as="points">
                            <mxPoint x="640" y="220"/>
                            <mxPoint x="630" y="220"/>
                        </Array>
                    </mxGeometry>
                </mxCell>
                <mxCell id="49" value="" style="endArrow=open;startArrow=none;endFill=0;startFill=0;endSize=8;html=1;verticalAlign=bottom;labelBackgroundColor=none;strokeWidth=1;entryX=0.75;entryY=0;entryDx=0;entryDy=0;exitX=0.25;exitY=1;exitDx=0;exitDy=0;" edge="1" parent="1" source="46" target="6">
                    <mxGeometry width="160" relative="1" as="geometry">
                        <mxPoint x="530" y="190" as="sourcePoint"/>
                        <mxPoint x="640" y="400" as="targetPoint"/>
                        <Array as="points">
                            <mxPoint x="575" y="320"/>
                            <mxPoint x="453" y="320"/>
                        </Array>
                    </mxGeometry>
                </mxCell>
                <mxCell id="50" value="" style="endArrow=open;startArrow=none;endFill=0;startFill=0;endSize=8;html=1;verticalAlign=bottom;labelBackgroundColor=none;strokeWidth=1;entryX=0.75;entryY=0;entryDx=0;entryDy=0;exitX=0.25;exitY=1;exitDx=0;exitDy=0;" edge="1" parent="1" source="46" target="5">
                    <mxGeometry width="160" relative="1" as="geometry">
                        <mxPoint x="555" y="194" as="sourcePoint"/>
                        <mxPoint x="463" y="400" as="targetPoint"/>
                        <Array as="points">
                            <mxPoint x="575" y="320"/>
                            <mxPoint x="285" y="320"/>
                        </Array>
                    </mxGeometry>
                </mxCell>
                <mxCell id="51" value="" style="endArrow=open;startArrow=none;endFill=0;startFill=0;endSize=8;html=1;verticalAlign=bottom;labelBackgroundColor=none;strokeWidth=1;exitX=0.25;exitY=1;exitDx=0;exitDy=0;" edge="1" parent="1" source="46">
                    <mxGeometry width="160" relative="1" as="geometry">
                        <mxPoint x="565" y="204" as="sourcePoint"/>
                        <mxPoint x="120" y="390" as="targetPoint"/>
                        <Array as="points">
                            <mxPoint x="575" y="320"/>
                            <mxPoint x="120" y="320"/>
                        </Array>
                    </mxGeometry>
                </mxCell>
                <mxCell id="53" value="" style="endArrow=none;startArrow=diamondThin;endFill=0;startFill=1;html=1;verticalAlign=bottom;labelBackgroundColor=none;strokeWidth=1;startSize=8;endSize=8;exitX=0;exitY=0.5;exitDx=0;exitDy=0;entryX=1;entryY=0.5;entryDx=0;entryDy=0;" edge="1" parent="1" source="46" target="30">
                    <mxGeometry width="160" relative="1" as="geometry">
                        <mxPoint x="425" y="104" as="sourcePoint"/>
                        <mxPoint x="425" y="140" as="targetPoint"/>
                        <Array as="points"/>
                    </mxGeometry>
                </mxCell>
                <mxCell id="56" value="" style="endArrow=block;startArrow=none;endFill=0;startFill=0;endSize=8;html=1;verticalAlign=bottom;dashed=1;labelBackgroundColor=none;exitX=0;exitY=0.5;exitDx=0;exitDy=0;" edge="1" parent="1" source="39">
                    <mxGeometry width="160" relative="1" as="geometry">
                        <mxPoint x="590" y="140" as="sourcePoint"/>
                        <mxPoint x="240" y="67" as="targetPoint"/>
                        <Array as="points"/>
                    </mxGeometry>
                </mxCell>
                <mxCell id="57" value="Export data" style="edgeLabel;html=1;align=center;verticalAlign=middle;resizable=0;points=[];" vertex="1" connectable="0" parent="56">
                    <mxGeometry x="-0.1315" y="1" relative="1" as="geometry">
                        <mxPoint as="offset"/>
                    </mxGeometry>
                </mxCell>
                <mxCell id="59" value="LaserPollingThread" style="swimlane;fontStyle=1;align=center;verticalAlign=middle;childLayout=stackLayout;horizontal=1;startSize=29;horizontalStack=0;resizeParent=1;resizeParentMax=0;resizeLast=0;collapsible=0;marginBottom=0;html=1;whiteSpace=wrap;flipH=0;" vertex="1" parent="1">
                    <mxGeometry x="20" y="660" width="140" height="54" as="geometry"/>
                </mxCell>
                <mxCell id="60" value="FlirCameraPollingThread" style="swimlane;fontStyle=1;align=center;verticalAlign=middle;childLayout=stackLayout;horizontal=1;startSize=29;horizontalStack=0;resizeParent=1;resizeParentMax=0;resizeLast=0;collapsible=0;marginBottom=0;html=1;whiteSpace=wrap;flipH=0;" vertex="1" parent="1">
                    <mxGeometry x="175" y="660" width="150" height="54" as="geometry"/>
                </mxCell>
                <mxCell id="61" value="PowerMeterPollingThread" style="swimlane;fontStyle=1;align=center;verticalAlign=middle;childLayout=stackLayout;horizontal=1;startSize=29;horizontalStack=0;resizeParent=1;resizeParentMax=0;resizeLast=0;collapsible=0;marginBottom=0;html=1;whiteSpace=wrap;flipH=0;" vertex="1" parent="1">
                    <mxGeometry x="337.5" y="660" width="155" height="54" as="geometry"/>
                </mxCell>
                <mxCell id="62" value="SpectrometerPollingThread" style="swimlane;fontStyle=1;align=center;verticalAlign=middle;childLayout=stackLayout;horizontal=1;startSize=29;horizontalStack=0;resizeParent=1;resizeParentMax=0;resizeLast=0;collapsible=0;marginBottom=0;html=1;whiteSpace=wrap;flipH=0;" vertex="1" parent="1">
                    <mxGeometry x="510" y="660" width="160" height="54" as="geometry"/>
                </mxCell>
                <mxCell id="63" value="RotatorPollingThread" style="swimlane;fontStyle=1;align=center;verticalAlign=middle;childLayout=stackLayout;horizontal=1;startSize=29;horizontalStack=0;resizeParent=1;resizeParentMax=0;resizeLast=0;collapsible=0;marginBottom=0;html=1;whiteSpace=wrap;flipH=0;" vertex="1" parent="1">
                    <mxGeometry x="700" y="660" width="130" height="54" as="geometry"/>
                </mxCell>
                <mxCell id="65" value="" style="endArrow=none;startArrow=diamondThin;endFill=0;startFill=1;html=1;verticalAlign=bottom;labelBackgroundColor=none;strokeWidth=1;startSize=8;endSize=8;entryX=0.25;entryY=1;entryDx=0;entryDy=0;exitX=0.25;exitY=0;exitDx=0;exitDy=0;" edge="1" parent="1" source="59" target="2">
                    <mxGeometry width="160" relative="1" as="geometry">
                        <mxPoint x="100" y="506" as="sourcePoint"/>
                        <mxPoint x="100" y="454" as="targetPoint"/>
                        <Array as="points">
                            <mxPoint x="10" y="630"/>
                            <mxPoint x="10" y="480"/>
                        </Array>
                    </mxGeometry>
                </mxCell>
                <mxCell id="66" value="" style="endArrow=none;startArrow=diamondThin;endFill=0;startFill=1;html=1;verticalAlign=bottom;labelBackgroundColor=none;strokeWidth=1;startSize=8;endSize=8;entryX=0.25;entryY=1;entryDx=0;entryDy=0;exitX=0.25;exitY=0;exitDx=0;exitDy=0;" edge="1" parent="1" source="60" target="5">
                    <mxGeometry width="160" relative="1" as="geometry">
                        <mxPoint x="240" y="610" as="sourcePoint"/>
                        <mxPoint x="220" y="470" as="targetPoint"/>
                        <Array as="points">
                            <mxPoint x="170" y="630"/>
                            <mxPoint x="170" y="480"/>
                        </Array>
                    </mxGeometry>
                </mxCell>
                <mxCell id="67" value="" style="endArrow=none;startArrow=diamondThin;endFill=0;startFill=1;html=1;verticalAlign=bottom;labelBackgroundColor=none;strokeWidth=1;startSize=8;endSize=8;entryX=0.25;entryY=1;entryDx=0;entryDy=0;exitX=0.25;exitY=0;exitDx=0;exitDy=0;" edge="1" parent="1" source="61" target="6">
                    <mxGeometry width="160" relative="1" as="geometry">
                        <mxPoint x="380" y="620" as="sourcePoint"/>
                        <mxPoint x="380" y="470" as="targetPoint"/>
                        <Array as="points">
                            <mxPoint x="330" y="630"/>
                            <mxPoint x="330" y="480"/>
                        </Array>
                    </mxGeometry>
                </mxCell>
                <mxCell id="68" value="" style="endArrow=none;startArrow=diamondThin;endFill=0;startFill=1;html=1;verticalAlign=bottom;labelBackgroundColor=none;strokeWidth=1;startSize=8;endSize=8;exitX=0.25;exitY=0;exitDx=0;exitDy=0;entryX=0.25;entryY=1;entryDx=0;entryDy=0;" edge="1" parent="1" source="62" target="7">
                    <mxGeometry width="160" relative="1" as="geometry">
                        <mxPoint x="545" y="660" as="sourcePoint"/>
                        <mxPoint x="550" y="460" as="targetPoint"/>
                        <Array as="points">
                            <mxPoint x="500" y="630"/>
                            <mxPoint x="500" y="480"/>
                        </Array>
                    </mxGeometry>
                </mxCell>
                <mxCell id="69" value="" style="endArrow=none;startArrow=diamondThin;endFill=0;startFill=1;html=1;verticalAlign=bottom;labelBackgroundColor=none;strokeWidth=1;startSize=8;endSize=8;exitX=0.75;exitY=0;exitDx=0;exitDy=0;entryX=0.75;entryY=1;entryDx=0;entryDy=0;" edge="1" parent="1" source="63" target="8">
                    <mxGeometry width="160" relative="1" as="geometry">
                        <mxPoint x="565" y="670" as="sourcePoint"/>
                        <mxPoint x="560" y="454" as="targetPoint"/>
                        <Array as="points">
                            <mxPoint x="830" y="620"/>
                            <mxPoint x="830" y="480"/>
                        </Array>
                    </mxGeometry>
                </mxCell>
            </root>
        </mxGraphModel>
    </diagram>
</mxfile>